<?xml version="1.0" encoding="utf-8"?>
<!-- Generator: Adobe Illustrator 17.1.0, SVG Export Plug-In . SVG Version: 6.00 Build 0)  -->
<!DOCTYPE svg PUBLIC "-//W3C//DTD SVG 1.0//EN" "http://www.w3.org/TR/2001/REC-SVG-20010904/DTD/svg10.dtd">
<svg version="1.0" id="Layer_1" xmlns="http://www.w3.org/2000/svg" xmlns:xlink="http://www.w3.org/1999/xlink" x="0px" y="0px"
	 width="26px" height="26px" viewBox="0 0 26 26" style="enable-background:new 0 0 26 26;" xml:space="preserve">
<path style="fill:none;stroke:#000000;stroke-width:1.6;stroke-linecap:round;stroke-linejoin:round;stroke-miterlimit:10;" d="
	M19.7,10.5c0.9-0.8,1.1-2.1,0.9-3c-1-1.2-3.4-1.5-4.4-1.5C14.5,6,13,7.1,13,7.1S11.5,6,9.8,6c-1,0-3.4,0.4-4.4,1.5
	c-0.2,0.9,0,2.2,0.9,3C5.6,11.1,4,12,4,13.4C4,18.9,9,24,13,25c4-1,9-6,9-11.6C22,12,20.4,11.1,19.7,10.5z"/>
<path d="M18.1,5.7c1.9-2.3,3.8-4.6,7-4.5c0.9,0,1.1,2.2,0.5,2.8c-0.1,0.1,1.1,3.9-0.8,5c0.8,1.5-0.4,3.8-1.5,3.9
	c1.2,1.4-0.2,3.9-2.2,3.9c0,0,2.2-3.8-1.2-5.7c0.4-0.8,0.6-2.2,0.3-3.4C20.1,7.1,18.9,6.2,18.1,5.7z"/>
<path d="M7.9,5.7C6,3.4,4.1,1.1,0.9,1.2C0,1.2-0.2,3.4,0.4,4c0.1,0.1-1.1,3.9,0.8,5c-0.8,1.5,0.4,3.8,1.5,3.9
	c-1.2,1.4,0.2,3.9,2.2,3.9c0,0-2.2-3.8,1.2-5.7C5.6,10.4,5.4,9,5.7,7.8C5.9,7.1,7.1,6.2,7.9,5.7z"/>
<path d="M18.8,10.6c0,0-1.1,0-2.7,0.8c-1.6,0.9-2.5,1.9-2.5,1.9s1.8,2.4,3.4,1.4C19.3,13.2,18.8,10.6,18.8,10.6z M16.3,14.4
	c-0.1-0.3-0.4-2-0.4-2.5c0-0.1,0.6-0.5,0.7-0.5C17.1,12.7,16.3,14.4,16.3,14.4z"/>
<path d="M9,14.7c1.6,1,3.4-1.4,3.4-1.4s-0.9-1-2.5-1.9c-1.6-0.8-2.7-0.8-2.7-0.8S6.7,13.2,9,14.7z M9.3,11.4C9.4,11.5,10,11.9,10,12
	c0,0.5-0.3,2.2-0.4,2.5C9.7,14.4,8.9,12.7,9.3,11.4z"/>
<path d="M13,18c-3.9,0-5.4-1-5.4-1s3.4,6,5.4,6c2,0,5.4-6,5.4-6S16.9,18,13,18z M14.7,19.2L14,20.6l-1-1.4l-1,1.4l-0.7-1.4l-0.5,1
	l-1-1.5c0,0,1.2,0.5,3.2,0.5c2,0,3.1-0.5,3.1-0.5l-0.7,1.5L14.7,19.2z"/>
<path d="M14.8,15.6c-0.2-0.2-0.5-0.1-0.8,0.1c0,0-0.2,0.3-0.4,0.6c-0.1,0.3-0.1,0.9,0,0.9c0.2,0,0.2-0.3,0.9-0.7
	C15,16.4,15.1,15.8,14.8,15.6z"/>
<path d="M11.2,15.6c0.2-0.2,0.5-0.1,0.8,0.1c0,0,0.2,0.3,0.4,0.6c0.1,0.3,0.1,0.9,0,0.9c-0.2,0-0.2-0.3-0.9-0.7
	C11,16.4,10.9,15.8,11.2,15.6z"/>
<path d="M16.1,6.3c0,0.4-1.4,0.1-3.1,0.1c-1.7,0-3.1,0.3-3.1-0.1c0-1.7,3.1-2.7,3.1-2.7S16.1,4.6,16.1,6.3z"/>
</svg>
