<?xml version="1.0" encoding="UTF-8"?>
<svg width="752pt" height="752pt" version="1.1" viewBox="0 0 752 752" xmlns="http://www.w3.org/2000/svg">
 <g>
  <path d="m224.2 432.23v38.367h25.004v-9.6641h-15.336v-28.703z"/>
  <path d="m257.91 460.94h11.453v9.6641h-11.453z"/>
  <path d="m195.92 498.88h275.83v-9.6641h-266.16v-307.23h340.81v307.23h-52.73v9.6641h62.398v-326.55h-360.14z"/>
  <path d="m518.12 274.69h9.6641v9.2773h-9.6641z"/>
  <path d="m518.12 255.36h9.6641v9.6641h-9.6641z"/>
  <path d="m518.12 236.03h9.6641v9.6641h-9.6641z"/>
  <path d="m518.12 216.7h9.6641v9.6641h-9.6641z"/>
  <path d="m181.81 579.21h-17.48v9.6641h428.58v-9.6641h-22.797c19.258-11.676 32.199-32.777 32.199-56.898v-4.832h-17.973l-0.003906-346.93c0.003906-14.617-11.891-26.512-26.512-26.512h-363.66c-14.621 0-26.512 11.895-26.512 26.512v346.93l-17.961-0.003907v4.832c0 22.805 11.453 44.324 32.121 56.902zm-4.4961-408.66c0-9.2891 7.5547-16.848 16.848-16.848h363.67c9.293 0 16.848 7.5586 16.848 16.844v346.93h-397.36zm415.13 356.59c-2.4648 29.121-26.949 52.066-56.695 52.066h-319.5c-29.812 0-54.27-22.926-56.699-52.066 484.87 0.003907-56.117 0 432.89 0z"/>
  <path d="m379.65 569.79c9.1602 0 16.613-7.4531 16.613-16.613 0-9.1602-7.4531-16.613-16.613-16.613s-16.613 7.4531-16.613 16.613c0 9.1602 7.4531 16.613 16.613 16.613zm0-23.562c3.832 0 6.9453 3.1172 6.9453 6.9492s-3.1133 6.9492-6.9453 6.9492c-3.832 0-6.9453-3.1172-6.9453-6.9492s3.1133-6.9492 6.9453-6.9492z"/>
  <path d="m423.34 548.34h44.973v9.6641h-44.973z"/>
  <path d="m287.98 548.34h44.973v9.6641h-44.973z"/>
  <path d="m476.59 354.93h9.6641v9.6641h-9.6641z"/>
  <path d="m476.59 335.6h9.6641v9.6641h-9.6641z"/>
  <path d="m476.59 374.25h9.6641v8.168h-9.6641z"/>
  <path d="m300.25 215.96c-2.7422 1.957-5.4141 4.043-7.9414 6.1953l6.2656 7.3555c2.3203-1.9766 4.7773-3.8906 7.293-5.6875z"/>
  <path d="m317.57 205.71c-3.0156 1.4531-6.0078 3.0508-8.8867 4.7578l4.9258 8.3164c2.6367-1.5625 5.3867-3.0312 8.1484-4.3633z"/>
  <path d="m266.59 252.93 8.3633 4.8477c1.5391-2.6562 3.2148-5.2734 4.9805-7.7891l-7.9102-5.5547c-1.9297 2.7422-3.7539 5.6016-5.4336 8.4961z"/>
  <path d="m261.91 261.85c-1.4219 3.0117-2.7383 6.1406-3.9023 9.3047l9.0703 3.3398c1.0664-2.8984 2.2695-5.7617 3.5742-8.5195z"/>
  <path d="m291.79 235.8-6.8633-6.8086c-2.3516 2.3711-4.6328 4.8789-6.7852 7.4492l7.418 6.1953c1.9727-2.3594 4.0703-4.6602 6.2305-6.8359z"/>
  <path d="m321.63 458.24h93.75c17.801 0 32.281-14.48 32.281-32.281v-11.832l19.77-19.328v-82.938c0-54.543-44.379-98.918-98.922-98.918-54.547 0-98.922 44.375-98.922 98.918v82.93l19.766 19.328v11.832c0 17.805 14.477 32.289 32.277 32.289zm-42.379-67.516v-78.863c0-49.215 40.039-89.254 89.254-89.254 49.219 0 89.262 40.043 89.262 89.254v78.863l-19.77 19.328v15.902c0 11.723-9 21.281-20.434 22.395v-23.855h-9.6641v24.074h-19.816v-24.074h-9.6641v24.074h-19.82v-24.074h-9.6641v24.074h-19.816v-24.074h-9.6641v23.855c-11.434-1.1172-20.434-10.672-20.434-22.395v-15.902z"/>
  <path d="m327.68 317.67c13.695 0 24.836-11.141 24.836-24.836 0-13.691-11.141-24.836-24.836-24.836-13.691 0-24.832 11.141-24.832 24.836 0 13.691 11.141 24.836 24.832 24.836zm0-40.004c8.3672 0 15.172 6.8047 15.172 15.172 0 8.3633-6.8047 15.172-15.172 15.172-8.3633 0-15.168-6.8047-15.168-15.172 0-8.3672 6.8047-15.172 15.168-15.172z"/>
  <path d="m409.34 317.67c13.691 0 24.832-11.141 24.832-24.836 0-13.691-11.141-24.836-24.832-24.836-13.695 0-24.836 11.141-24.836 24.836 0 13.691 11.141 24.836 24.836 24.836zm0-40.004c8.3633 0 15.168 6.8047 15.168 15.172 0 8.3633-6.8047 15.172-15.168 15.172-8.3672 0-15.172-6.8047-15.172-15.172 0-8.3672 6.8047-15.172 15.172-15.172z"/>
  <path d="m343.72 345.41 24.84 21.316 24.746-21.324-6.3047-7.3242-18.453 15.898-18.531-15.902z"/>
  <path d="m478.57 598.29h59.699v9.6641h-59.699z"/>
  <path d="m262.36 598.29h199.3v9.6641h-199.3z"/>
  <path d="m218.97 598.29h30.766v9.6641h-30.766z"/>
 </g>
</svg>
