<?xml version="1.0" ?><svg viewBox="0 0 60 60" xmlns="http://www.w3.org/2000/svg"><title/><g data-name="Layer 1" id="Layer_1"><path d="M57,29H55.97467A25.99367,25.99367,0,0,0,4.02533,29H3a1,1,0,0,0,0,2H4.02533a25.99367,25.99367,0,0,0,51.94934,0H57a1,1,0,0,0,0-2ZM30,6A24.02655,24.02655,0,0,1,53.97443,29H52c-.01733,0-.03168.009-.04877.00983A22.01045,22.01045,0,0,0,31,8.02539V8H29v.02539A22.01045,22.01045,0,0,0,8.04877,29.00983C8.03168,29.009,8.01733,29,8,29H6.02557A24.02655,24.02655,0,0,1,30,6Zm5.55469,30.5293a5.893,5.893,0,0,1-.58008,7.39648,7.00125,7.00125,0,0,1-9.94824,0,5.89181,5.89181,0,0,1-.58105-7.39648L28.79785,30l-4.35254-6.5293a5.893,5.893,0,0,1,.58008-7.39648,7.00125,7.00125,0,0,1,9.94824,0,5.89181,5.89181,0,0,1,.58105,7.39648L31.20215,30ZM29,12.05066a17.97585,17.97585,0,0,0,0,35.89868v2a19.97306,19.97306,0,0,1,0-39.89868ZM18,35a1,1,0,1,1-1,1A1,1,0,0,1,18,35ZM17,24a1,1,0,1,1,1,1A1,1,0,0,1,17,24Zm3,17a1,1,0,1,1-1,1A1,1,0,0,1,20,41Zm0-22a1,1,0,1,1,1-1A1,1,0,0,1,20,19Zm2,10a1,1,0,1,1-1,1A1,1,0,0,1,22,29Zm-6,1a1,1,0,1,1-1-1A1,1,0,0,1,16,30ZM31,47.94934a17.97585,17.97585,0,0,0,0-35.89868v-2a19.97306,19.97306,0,0,1,0,39.89868ZM42,25a1,1,0,1,1,1-1A1,1,0,0,1,42,25Zm1,11a1,1,0,1,1-1-1A1,1,0,0,1,43,36ZM40,19a1,1,0,1,1,1-1A1,1,0,0,1,40,19Zm0,22a1,1,0,1,1-1,1A1,1,0,0,1,40,41ZM38,31a1,1,0,1,1,1-1A1,1,0,0,1,38,31Zm6-1a1,1,0,1,1,1,1A1,1,0,0,1,44,30ZM30,54A24.02655,24.02655,0,0,1,6.02557,31H8c.01733,0,.03168-.009.04877-.00983A22.01045,22.01045,0,0,0,29,51.97461V52h2v-.02539A22.01045,22.01045,0,0,0,51.95123,30.99017C51.96832,30.991,51.98267,31,52,31h1.97443A24.02655,24.02655,0,0,1,30,54Z"/><path d="M30,16a4.96906,4.96906,0,0,0-3.55371,1.48242,3.88615,3.88615,0,0,0-.33691,4.87891L30,28.19727l3.89063-5.83594a3.88494,3.88494,0,0,0-.33789-4.87891A4.96516,4.96516,0,0,0,30,16Z"/><path d="M26.10938,37.63867l-.00366.00665A5.51731,5.51731,0,0,0,30,39a5.51731,5.51731,0,0,0,3.89429-1.35468l-.00366-.00665L30,31.80273Z"/><path d="M25.42633,39.6449a3.68355,3.68355,0,0,0,1.02094,2.87268,4.99958,4.99958,0,0,0,7.10645,0,3.68455,3.68455,0,0,0,1.02-2.87268A7.56369,7.56369,0,0,1,30,41,7.56369,7.56369,0,0,1,25.42633,39.6449Z"/></g></svg>