<?xml version="1.0" encoding="utf-8"?>
<!-- Generator: Adobe Illustrator 22.0.1, SVG Export Plug-In . SVG Version: 6.00 Build 0)  -->
<svg version="1.1" id="Layer_1" xmlns="http://www.w3.org/2000/svg" xmlns:xlink="http://www.w3.org/1999/xlink" x="0px" y="0px"
	 viewBox="0 0 100 100" style="enable-background:new 0 0 100 100;" xml:space="preserve">
<g>
	<path d="M33.1,75.9c0.8,0,1.6,0.4,2.2,1l9.5,10.7C46.1,89.1,48,90,50,90s3.9-0.9,5.2-2.3l9.5-10.7c0.6-0.6,1.4-1,2.2-1
		c11.1,0,20.1-9,20.1-20.1V30.1C87,19,78,10,66.9,10H33.1C22,10,13,19,13,30.1v25.8C13,66.9,22,75.9,33.1,75.9z M17,30.1
		C17,21.2,24.2,14,33.1,14h33.8C75.8,14,83,21.2,83,30.1v25.8c0,8.9-7.2,16.1-16.1,16.1c-2,0-3.9,0.9-5.2,2.3L52.2,85v0
		c-1.1,1.3-3.3,1.3-4.4,0l-9.5-10.7c-1.3-1.5-3.2-2.3-5.2-2.3c-8.9,0-16.1-7.2-16.1-16.1V30.1z"/>
</g>
</svg>
