<?xml version="1.0" encoding="utf-8"?>
<!-- Generator: Adobe Illustrator 16.0.0, SVG Export Plug-In . SVG Version: 6.00 Build 0)  -->
<!DOCTYPE svg PUBLIC "-//W3C//DTD SVG 1.1//EN" "http://www.w3.org/Graphics/SVG/1.1/DTD/svg11.dtd">
<svg version="1.1" id="GIFT_1_" xmlns="http://www.w3.org/2000/svg" xmlns:xlink="http://www.w3.org/1999/xlink" x="0px" y="0px"
	 width="64px" height="64px" viewBox="0 0 64 64" enable-background="new 0 0 64 64" xml:space="preserve">
<path fill="#1A171B" d="M47,20.729h-3.356c1.834-1.772,2.241-4.654,0.825-6.899c-1.016-1.605-2.757-2.563-4.657-2.563
	c-1.041,0-2.057,0.295-2.938,0.854c-1.938,1.224-4.011,5.9-4.873,8.014c-0.863-2.114-2.937-6.791-4.873-8.013
	c-0.883-0.559-1.898-0.854-2.939-0.854c-1.9,0-3.642,0.958-4.658,2.564c-1.413,2.24-1.007,5.12,0.823,6.897H17c-0.552,0-1,0.447-1,1
	v8.487c0,0.553,0.448,1,1,1h0.551V49.38c0,0.553,0.447,1,1,1h9.789h7.32h9.789c0.553,0,1-0.447,1-1V31.216H47c0.553,0,1-0.447,1-1
	v-8.487C48,21.176,47.553,20.729,47,20.729z M46,29.216h-0.551H36.66v-6.487H46V29.216z M34.66,22.729v6.487h-5.32v-6.487H34.66z
	 M37.942,13.81c0.562-0.355,1.208-0.543,1.869-0.543c1.211,0,2.32,0.61,2.967,1.632c1.032,1.637,0.544,3.806-1.09,4.837
	c-0.344,0.218-1.571,0.726-5.521,0.726c-0.788,0-1.526-0.021-2.118-0.046C35.139,17.838,36.812,14.524,37.942,13.81z M21.22,14.899
	c0.647-1.022,1.757-1.632,2.968-1.632c0.661,0,1.308,0.188,1.87,0.545c1.129,0.712,2.802,4.027,3.893,6.604
	c-0.597,0.025-1.34,0.047-2.137,0.047h-0.001c-3.937,0-5.16-0.505-5.502-0.721C20.678,18.706,20.189,16.534,21.22,14.899z
	 M18,22.729h9.34v6.487h-8.789H18V22.729z M19.551,31.216h7.789V48.38h-7.789V31.216z M29.34,48.38V31.216h5.32V48.38H29.34z
	 M44.449,48.38H36.66V31.216h7.789V48.38z"/>
</svg>
